<?xml version="1.0" encoding="UTF-8" standalone="no"?>
<svg
   xmlns:dc="http://purl.org/dc/elements/1.1/"
   xmlns:cc="http://creativecommons.org/ns#"
   xmlns:rdf="http://www.w3.org/1999/02/22-rdf-syntax-ns#"
   xmlns:svg="http://www.w3.org/2000/svg"
   xmlns="http://www.w3.org/2000/svg"
   xmlns:sodipodi="http://sodipodi.sourceforge.net/DTD/sodipodi-0.dtd"
   xmlns:inkscape="http://www.inkscape.org/namespaces/inkscape"
   version="1.1"
   id="svg2"
   xml:space="preserve"
   width="567.23999"
   height="492.74667"
   viewBox="0 0 567.23999 492.74667"
   sodipodi:docname="3730790.eps"><metadata
     id="metadata8"><rdf:RDF><cc:Work
         rdf:about=""><dc:format>image/svg+xml</dc:format><dc:type
           rdf:resource="http://purl.org/dc/dcmitype/StillImage" /></cc:Work></rdf:RDF></metadata><defs
     id="defs6" /><sodipodi:namedview
     pagecolor="#ffffff"
     bordercolor="#666666"
     borderopacity="1"
     objecttolerance="10"
     gridtolerance="10"
     guidetolerance="10"
     inkscape:pageopacity="0"
     inkscape:pageshadow="2"
     inkscape:window-width="640"
     inkscape:window-height="480"
     id="namedview4" /><g
     id="g10"
     inkscape:groupmode="layer"
     inkscape:label="ink_ext_XXXXXX"
     transform="matrix(1.3333333,0,0,-1.3333333,0,492.74667)"><g
       id="g12"
       transform="scale(0.1)"><path
         d="M 3723.78,2522.9 C 4103.1,1694.76 3684.25,937.711 3011.2,580.66 2432.54,273.68 1418.67,424.07 860.871,845.512 293.34,1274.32 224.789,1731.21 574.809,2215.71 1062.6,2890.92 924.582,3308.26 1654.07,3617.78 c 398.51,169.09 849.21,50.42 1097.15,-239.25 320.94,-374.93 784.7,-445.48 972.56,-855.63"
         style="fill:#f3e6f4;fill-opacity:1;fill-rule:nonzero;stroke:none"
         id="path14" /><path
         d="m 279.445,2429.28 c 0,0 -52.343,-284.57 232.34,-386.43 0,0 47.012,279.46 -232.34,386.43"
         style="fill:#c0c6e9;fill-opacity:1;fill-rule:nonzero;stroke:none"
         id="path16" /><path
         d="m 231.512,1963.17 c 0,0 120.043,-263.25 411.758,-183.73 0,0 -121.497,256.02 -411.758,183.73"
         style="fill:#c0c6e9;fill-opacity:1;fill-rule:nonzero;stroke:none"
         id="path18" /><path
         d="m 323.969,1659.17 c 0,0 160.902,-240.48 435.992,-114.98 0,0 -161.168,233.1 -435.992,114.98"
         style="fill:#c0c6e9;fill-opacity:1;fill-rule:nonzero;stroke:none"
         id="path20" /><path
         d="m 732.902,2220.15 c 0,0 -228.66,-177.29 -84.285,-442.95 0,0 221.289,177.03 84.285,442.95"
         style="fill:#c0c6e9;fill-opacity:1;fill-rule:nonzero;stroke:none"
         id="path22" /><path
         d="m 884.012,1913.27 c 0,0 -228.66,-177.28 -84.282,-442.94 0,0 221.28,177.03 84.282,442.94"
         style="fill:#c0c6e9;fill-opacity:1;fill-rule:nonzero;stroke:none"
         id="path24" /><path
         d="m 398.66,2245.96 c 0,0 435.844,-771.95 646.38,-1370.319"
         style="fill:none;stroke:#c0c6e9;stroke-width:10;stroke-linecap:butt;stroke-linejoin:miter;stroke-miterlimit:10;stroke-dasharray:none;stroke-opacity:1"
         id="path26" /><path
         d="m 1049.61,2731.07 c 0,0 -246.122,-1349.42 292.3,-1780.148 538.41,-430.731 560.18,-82.75 560.18,-82.75 0,0 -38.19,1451.398 -852.48,1862.898"
         style="fill:#ccd1ee;fill-opacity:1;fill-rule:nonzero;stroke:none"
         id="path28" /><path
         d="m 1054.25,2733.72 c 0,0 438.14,-1940.341 746.52,-2229.45"
         style="fill:none;stroke:#ffffff;stroke-width:10;stroke-linecap:round;stroke-linejoin:miter;stroke-miterlimit:10;stroke-dasharray:none;stroke-opacity:1"
         id="path30" /><path
         d="m 28.0586,1457.65 c 0,0 299.9254,-887.83 821.8244,-985.252 521.887,-97.429 552.537,214.981 552.537,214.981 0,0 -769.76,739.521 -1374.3614,770.271"
         style="fill:#c0c6e9;fill-opacity:1;fill-rule:nonzero;stroke:none"
         id="path32" /><path
         d="m 4.99609,1486.91 c 0,0 1036.32391,-985.219 1350.61391,-1069.828"
         style="fill:none;stroke:#ffffff;stroke-width:10;stroke-linecap:round;stroke-linejoin:miter;stroke-miterlimit:10;stroke-dasharray:none;stroke-opacity:1"
         id="path34" /><path
         d="m 4002.92,2429.28 c 0,0 52.35,-284.57 -232.33,-386.43 0,0 -47.01,279.46 232.33,386.43"
         style="fill:#c0c6e9;fill-opacity:1;fill-rule:nonzero;stroke:none"
         id="path36" /><path
         d="m 4050.86,1963.17 c 0,0 -120.05,-263.25 -411.76,-183.73 0,0 121.5,256.02 411.76,183.73"
         style="fill:#c0c6e9;fill-opacity:1;fill-rule:nonzero;stroke:none"
         id="path38" /><path
         d="m 3958.4,1659.17 c 0,0 -160.9,-240.48 -435.99,-114.98 0,0 161.17,233.1 435.99,114.98"
         style="fill:#c0c6e9;fill-opacity:1;fill-rule:nonzero;stroke:none"
         id="path40" /><path
         d="m 3549.47,2220.15 c 0,0 228.67,-177.29 84.28,-442.95 0,0 -221.28,177.03 -84.28,442.95"
         style="fill:#c0c6e9;fill-opacity:1;fill-rule:nonzero;stroke:none"
         id="path42" /><path
         d="m 3398.36,1913.27 c 0,0 228.66,-177.28 84.29,-442.94 0,0 -221.29,177.03 -84.29,442.94"
         style="fill:#c0c6e9;fill-opacity:1;fill-rule:nonzero;stroke:none"
         id="path44" /><path
         d="m 3883.71,2245.96 c 0,0 -435.85,-771.95 -646.37,-1370.319"
         style="fill:none;stroke:#c0c6e9;stroke-width:10;stroke-linecap:butt;stroke-linejoin:miter;stroke-miterlimit:10;stroke-dasharray:none;stroke-opacity:1"
         id="path46" /><path
         d="m 3030.15,1025.69 c -538.41,-430.799 -764.5,-91.6 -764.5,-91.6 0,0 249.5,896.29 725.9,1425.09 l 119,-149.2 -47.71,223.8 c 94.2,92.61 196.4,169.91 306.51,223.3 0,0 199.2,-1200.7 -339.2,-1631.39"
         style="fill:#ccd1ee;fill-opacity:1;fill-rule:nonzero;stroke:none"
         id="path48" /><path
         d="m 3368.86,2655.92 c 0,0 -578.88,-1862.541 -887.26,-2151.65"
         style="fill:none;stroke:#ffffff;stroke-width:10;stroke-linecap:round;stroke-linejoin:miter;stroke-miterlimit:10;stroke-dasharray:none;stroke-opacity:1"
         id="path50" /><path
         d="m 4254.32,1457.65 c 0,0 -299.93,-887.83 -821.83,-985.252 -521.89,-97.429 -552.54,214.981 -552.54,214.981 0,0 769.76,739.521 1374.37,770.271"
         style="fill:#c0c6e9;fill-opacity:1;fill-rule:nonzero;stroke:none"
         id="path52" /><path
         d="m 4247.97,1457.88 c 0,0 -1006.91,-956.189 -1321.21,-1040.798"
         style="fill:none;stroke:#ffffff;stroke-width:10;stroke-linecap:round;stroke-linejoin:miter;stroke-miterlimit:10;stroke-dasharray:none;stroke-opacity:1"
         id="path54" /><path
         d="M 2156.33,2392.32 V 705.52 l -573.7,164.402 26.9,86.687 12.2,513.111 c -3.3,-8.01 -34.4,-50 -68.1,-94.5 -58.3,-76.8 -139.2,-133.4 -231.4,-161.7 -134,-41.1 -317.1,-98.51 -323.3,-106.81 l -161.106,284.1 423.006,189.31 191.8,397.3 c 37.8,81.69 95.1,151.69 165.9,204.4 44.2,32.9 93.5,59.1 146.7,77.2 l 148.4,50.6 242.7,82.7"
         style="fill:#254993;fill-opacity:1;fill-rule:nonzero;stroke:none"
         id="path56" /><path
         d="M 837.605,1389.11 679.352,1511 c -11.079,14.98 -30.286,21.51 -48.204,16.4 v 0 c -25.011,-7.15 -38.66,-34.08 -29.632,-58.48 l 79.222,-90.6 c 7.164,-19.36 -10.968,-29.68 -28.699,-38.11 l -88.605,-36.9 c -8.469,-3.53 -16.981,4.93 -13.52,13.42 l 33.695,82.62 c 2.547,8.89 3.602,18.22 2.207,27.35 -1.179,7.74 -4.125,16.05 -10.832,21.41 v 0 c -25.246,20.19 -62.402,14.21 -80.023,-12.89 l -54.516,-83.84 c -32.465,-49.92 -21.925,-116.31 24.403,-153.73 l 99.265,-80.18 c 62.25,-50.28 147.977,-60.01 219.918,-24.96 l 131.91,62.84 -78.336,233.76"
         style="fill:#f68366;fill-opacity:1;fill-rule:nonzero;stroke:none"
         id="path58" /><path
         d="m 998.227,1108.12 -364.2,-127.901 c -50.3,-25.098 -109.898,-20.797 -155.8,10.703 -2.598,1.699 -5.098,3.598 -7.598,5.5 l -54.102,38.588 c -27.3,21.2 -25.402,63.11 3.797,81.7 l 417.305,272.4 155,-271.29 5.598,-9.7"
         style="fill:#f68366;fill-opacity:1;fill-rule:nonzero;stroke:none"
         id="path60" /><path
         d="M 647.793,1111.01 431.691,1025.24"
         style="fill:none;stroke:#1d436e;stroke-width:10;stroke-linecap:round;stroke-linejoin:miter;stroke-miterlimit:10;stroke-dasharray:none;stroke-opacity:1"
         id="path62" /><path
         d="m 502.16,1171.44 103.313,47.04"
         style="fill:none;stroke:#1d436e;stroke-width:10;stroke-linecap:round;stroke-linejoin:miter;stroke-miterlimit:10;stroke-dasharray:none;stroke-opacity:1"
         id="path64" /><path
         d="m 2397.62,2727.96 c -18.61,-57.42 7.71,-117.4 58.81,-133.97 51.09,-16.57 107.61,16.56 126.22,73.98 18.62,57.42 -7.71,117.41 -58.8,133.97 -51.09,16.57 -107.61,-16.56 -126.23,-73.98"
         style="fill:#f57454;fill-opacity:1;fill-rule:nonzero;stroke:none"
         id="path66" /><path
         d="m 1931.98,2727.96 c 18.62,-57.42 -7.7,-117.4 -58.8,-133.97 -51.1,-16.57 -107.61,16.56 -126.23,73.98 -18.62,57.42 7.71,117.41 58.8,133.97 51.1,16.57 107.61,-16.56 126.23,-73.98"
         style="fill:#f57454;fill-opacity:1;fill-rule:nonzero;stroke:none"
         id="path68" /><path
         d="m 1892.29,2695.02 c 0,-24.96 -20.24,-45.19 -45.19,-45.19 -24.96,0 -45.2,20.23 -45.2,45.19 0,24.96 20.24,45.19 45.2,45.19 24.95,0 45.19,-20.23 45.19,-45.19 z"
         style="fill:none;stroke:#cb5d3f;stroke-width:10;stroke-linecap:round;stroke-linejoin:miter;stroke-miterlimit:10;stroke-dasharray:none;stroke-opacity:1"
         id="path70" /><path
         d="m 2526.77,2695.02 c 0,-24.96 -20.23,-45.19 -45.19,-45.19 -24.97,0 -45.2,20.23 -45.2,45.19 0,24.96 20.23,45.19 45.2,45.19 24.96,0 45.19,-20.23 45.19,-45.19 z"
         style="fill:none;stroke:#cb5d3f;stroke-width:10;stroke-linecap:round;stroke-linejoin:miter;stroke-miterlimit:10;stroke-dasharray:none;stroke-opacity:1"
         id="path72" /><path
         d="m 3472.23,1390.81 -161.1,-284.1 c -6.21,8.3 -189.3,65.71 -323.3,106.81 -92.2,28.3 -173.1,84.9 -231.4,161.7 -32.31,42.6 -62.1,82.8 -67.5,93.3 0,0 -0.1,0 -0.1,0.1 -0.2,0.4 -0.4,0.8 -0.51,1.1 l 12.21,-513.111 26.89,-86.687 -573.59,-164.402 v 1686.8 l 391,-133.3 c 51.3,-17.5 99.1,-42.5 142.1,-73.7 72.9,-53.2 131.9,-124.4 170.49,-207.9 l 191.81,-397.3 423,-189.31"
         style="fill:#254993;fill-opacity:1;fill-rule:nonzero;stroke:none"
         id="path74" /><path
         d="m 2327.25,2648.79 v -330.35 c 0,-92.74 -75.19,-167.93 -168.05,-167.93 -92.74,0 -167.93,75.19 -167.93,167.93 v 330.35 h 335.98"
         style="fill:#f68366;fill-opacity:1;fill-rule:nonzero;stroke:none"
         id="path76" /><path
         d="m 2327.25,2648.79 v -308.4 c -35.12,-15.08 -73.95,-23.41 -114.58,-23.41 h -99.73 c -43.44,0 -84.64,9.45 -121.67,26.56 v 305.25 h 335.98"
         style="fill:#f57454;fill-opacity:1;fill-rule:nonzero;stroke:none"
         id="path78" /><path
         d="m 2474.26,2873.38 v -239.43 c 0,-146.87 -118.94,-265.82 -265.82,-265.82 h -90.93 c -146.87,0 -265.82,118.95 -265.82,265.82 v 239.43 c 0,142.35 115.36,257.72 257.71,257.72 h 107.15 c 13.24,0 26.28,-1.03 38.9,-2.98 123.88,-18.68 218.81,-125.62 218.81,-254.74"
         style="fill:#f68366;fill-opacity:1;fill-rule:nonzero;stroke:none"
         id="path80" /><path
         d="m 2061.61,2792.36 c 0,-30.73 -24.91,-55.64 -55.65,-55.64 -30.72,0 -55.63,24.91 -55.63,55.64"
         style="fill:none;stroke:#1b1f42;stroke-width:10;stroke-linecap:round;stroke-linejoin:miter;stroke-miterlimit:10;stroke-dasharray:none;stroke-opacity:1"
         id="path82" /><path
         d="m 2389.72,2792.36 c 0,-30.73 -24.91,-55.64 -55.64,-55.64 -30.73,0 -55.64,24.91 -55.64,55.64"
         style="fill:none;stroke:#1b1f42;stroke-width:10;stroke-linecap:round;stroke-linejoin:miter;stroke-miterlimit:10;stroke-dasharray:none;stroke-opacity:1"
         id="path84" /><path
         d="m 2218.61,2602.79 c 0,-30.73 -24.92,-55.64 -55.64,-55.64 -30.74,0 -55.65,24.91 -55.65,55.64"
         style="fill:none;stroke:#e8613c;stroke-width:10;stroke-linecap:round;stroke-linejoin:miter;stroke-miterlimit:10;stroke-dasharray:none;stroke-opacity:1"
         id="path86" /><path
         d="m 2068.16,2673.55 c 0,-19.35 -26.61,-35.04 -59.43,-35.04 -32.82,0 -59.43,15.69 -59.43,35.04 0,19.35 26.61,35.04 59.43,35.04 32.82,0 59.43,-15.69 59.43,-35.04"
         style="fill:#f57454;fill-opacity:1;fill-rule:nonzero;stroke:none"
         id="path88" /><path
         d="m 2384.42,2673.55 c 0,-19.35 -26.61,-35.04 -59.44,-35.04 -32.82,0 -59.42,15.69 -59.42,35.04 0,19.35 26.6,35.04 59.42,35.04 32.83,0 59.44,-15.69 59.44,-35.04"
         style="fill:#f57454;fill-opacity:1;fill-rule:nonzero;stroke:none"
         id="path90" /><path
         d="M 3947.41,298.809 C 3947.41,133.781 3156.45,0 2180.74,0 1205.04,0 414.078,133.781 414.078,298.809 c 0,165.023 790.962,298.8 1766.662,298.8 975.71,0 1766.67,-133.777 1766.67,-298.8"
         style="fill:#e1e4f5;fill-opacity:1;fill-rule:nonzero;stroke:none"
         id="path92" /><path
         d="m 1413.13,1013.71 -130.4,-523.3 -373.906,46.809 C 755.828,556.422 650.93,700.922 680.129,852.32 c 24.398,126.789 135.402,216.2 261.5,216.2 10.699,0 21.5,-0.61 32.301,-1.91 l 439.2,-52.9"
         style="fill:#f57454;fill-opacity:1;fill-rule:nonzero;stroke:none"
         id="path94" /><path
         d="m 3403.03,537.219 -339.71,-42.5 -187.69,516.201 462.4,55.69 c 10.8,1.3 21.6,1.91 32.3,1.91 126.1,0 237.09,-89.411 261.5,-216.2 29.2,-151.398 -75.8,-295.898 -228.8,-315.101"
         style="fill:#f57454;fill-opacity:1;fill-rule:nonzero;stroke:none"
         id="path96" /><path
         d="m 3063.32,494.719 -904.99,-113.297 -2.3,56.398 -2.4,-56.398 -870.9,108.988 130.4,523.3 622.2,-74.999 c 80.1,-9.691 161.2,-9.691 241.29,0 l 599.01,72.209 187.69,-516.201"
         style="fill:#182e4b;fill-opacity:1;fill-rule:nonzero;stroke:none"
         id="path98" /><path
         d="m 1943.41,3258.59 h -53.08 c -38.2,0 -69.18,-30.97 -69.18,-69.18 v -383.06 l 31.17,-2.51 c 21.66,80.19 81.17,54.36 81.17,118.33 l 9.92,336.42"
         style="fill:#182e4b;fill-opacity:1;fill-rule:nonzero;stroke:none"
         id="path100" /><path
         d="m 2380.76,3258.59 h 53.07 c 38.21,0 69.19,-30.97 69.19,-69.18 v -383.56 l -28.94,-2.9 c -3.9,91.6 -82.27,73.26 -82.27,137.23 l -11.05,318.41"
         style="fill:#182e4b;fill-opacity:1;fill-rule:nonzero;stroke:none"
         id="path102" /><path
         d="m 2456.22,3092.12 c -319.59,-166.2 -587.99,0 -587.99,0 v 156.2 c 0,2 0.1,4 0.3,6 3,33.8 31.4,60.2 65.9,60.2 h 455.6 c 36.59,0 66.19,-29.6 66.19,-66.2 0,0 47.71,-131.3 0,-156.2"
         style="fill:#182e4b;fill-opacity:1;fill-rule:nonzero;stroke:none"
         id="path104" /><path
         d="M 3472.46,1389.11 3630.72,1511 c 11.07,14.98 30.28,21.51 48.2,16.4 v 0 c 25.01,-7.15 38.66,-34.08 29.64,-58.48 l -79.23,-90.6 c -7.16,-19.36 10.97,-29.68 28.7,-38.11 l 88.6,-36.9 c 8.47,-3.53 16.99,4.93 13.52,13.42 l -33.69,82.62 c -2.55,8.89 -3.6,18.22 -2.21,27.35 1.18,7.74 4.13,16.05 10.83,21.41 v 0 c 25.25,20.19 62.4,14.21 80.03,-12.89 l 54.51,-83.84 c 32.46,-49.92 21.93,-116.31 -24.4,-153.73 l -99.26,-80.18 c -62.26,-50.28 -147.98,-60.01 -219.92,-24.96 l -131.92,62.84 78.34,233.76"
         style="fill:#f68366;fill-opacity:1;fill-rule:nonzero;stroke:none"
         id="path106" /><path
         d="m 3472.46,1389.11 417.32,-272.38 c 29.14,-18.62 31.07,-60.47 3.78,-81.69 l -54.07,-38.661 c -46.82,-36.399 -110.37,-42.688 -163.41,-16.168 l -364.25,127.889 160.63,281.01"
         style="fill:#f68366;fill-opacity:1;fill-rule:nonzero;stroke:none"
         id="path108" /><path
         d="m 3662.28,1111.01 216.09,-85.77"
         style="fill:none;stroke:#1d436e;stroke-width:10;stroke-linecap:round;stroke-linejoin:miter;stroke-miterlimit:10;stroke-dasharray:none;stroke-opacity:1"
         id="path110" /><path
         d="m 3807.9,1171.44 -103.3,47.04"
         style="fill:none;stroke:#1d436e;stroke-width:10;stroke-linecap:round;stroke-linejoin:miter;stroke-miterlimit:10;stroke-dasharray:none;stroke-opacity:1"
         id="path112" /><path
         d="m 2875.63,1010.92 c 0,0 -381.91,-132.209 -697.3,-140.4 -315.3,-8.2 -765.2,143.19 -765.2,143.19 l 622.2,-74.999 c 80.1,-9.691 161.2,-9.691 241.29,0 l 599.01,72.209"
         style="fill:#1b395c;fill-opacity:1;fill-rule:nonzero;stroke:none"
         id="path114" /><path
         d="m 2693.9,519.461 -563.69,-1.039 -88.81,-368.402 267.14,-49.2 c 190.13,-35.0114 378.04,71.16 446.18,252.059 l 19.24,51.101 c 21.05,55.899 -20.33,115.579 -80.06,115.481"
         style="fill:#f57454;fill-opacity:1;fill-rule:nonzero;stroke:none"
         id="path116" /><path
         d="m 2130.23,518.461 -4,-16.492 -81.4,-337.707 -3.4,-14.203 -25.9,8.8 -547.8,184.903 -614.906,207.597 c -146.097,49.313 -220,211.911 -161.195,354.411 42.301,102.29 141.301,165 246.5,165 27.996,0 56.297,-4.41 84.201,-13.71 l 964.2,-468.79 134.7,-65.411 9,-4.398"
         style="fill:#f68366;fill-opacity:1;fill-rule:nonzero;stroke:none"
         id="path118" /><path
         d="M 3289.63,1057.07 2181.73,518.422 2270.54,150.02 3459.1,551.359 c 146.09,49.332 220.02,211.911 161.19,354.422 v 0 c -53.43,129.409 -197.82,195.459 -330.66,151.289"
         style="fill:#f68366;fill-opacity:1;fill-rule:nonzero;stroke:none"
         id="path120" /><path
         d="m 2126.23,501.969 -81.4,-337.707 -29.3,-5.403 -547.8,184.903 c -12.4,21.008 -23.2,43.297 -32,66.797 l -20.7,54.8 c -22.6,60 21.8,124.012 85.9,123.903 l 485.6,-0.992 134.7,-65.411 5,-20.89"
         style="fill:#f57454;fill-opacity:1;fill-rule:nonzero;stroke:none"
         id="path122" /><path
         d="m 1618.04,519.461 563.69,-1.039 88.81,-368.402 -267.14,-49.2 c -190.12,-35.0114 -378.04,71.16 -446.17,252.059 l -19.24,51.101 c -21.06,55.899 20.32,115.579 80.05,115.481"
         style="fill:#f68366;fill-opacity:1;fill-rule:nonzero;stroke:none"
         id="path124" /><path
         d="m 1553.06,370.762 180.7,12.797"
         style="fill:none;stroke:#1d436e;stroke-width:10;stroke-linecap:round;stroke-linejoin:miter;stroke-miterlimit:10;stroke-dasharray:none;stroke-opacity:1"
         id="path126" /><path
         d="m 1598.94,270.852 135.69,17.699"
         style="fill:none;stroke:#1d436e;stroke-width:10;stroke-linecap:round;stroke-linejoin:miter;stroke-miterlimit:10;stroke-dasharray:none;stroke-opacity:1"
         id="path128" /><path
         d="m 1670.81,187.34 101.2,22.82"
         style="fill:none;stroke:#1d436e;stroke-width:10;stroke-linecap:round;stroke-linejoin:miter;stroke-miterlimit:10;stroke-dasharray:none;stroke-opacity:1"
         id="path130" /><path
         d="m 3472.23,1390.81 -7.5,-13.19 -153.6,-270.91 c -6.21,8.3 -189.3,65.71 -323.3,106.81 -92.2,28.3 -173.1,84.9 -231.4,161.7 -32.31,42.6 -62.1,82.8 -67.5,93.3 0,0 -0.1,0 -0.1,0.1 -0.2,0.8 -0.3,1.7 -0.51,2.5 -42.69,216.9 -26.89,499.3 -9.6,651.7 2.81,24.5 5.61,45.6 8.21,62.5 72.9,-53.2 131.9,-124.4 170.49,-207.9 l 191.81,-397.3 423,-189.31"
         style="fill:#182e4b;fill-opacity:1;fill-rule:nonzero;stroke:none"
         id="path132" /><path
         d="m 1622.73,1471.12 c -0.2,-0.8 -0.3,-1.7 -0.5,-2.5 0,-0.1 -0.1,-0.1 -0.1,-0.1 -5.4,-10.5 -35.2,-50.7 -67.5,-93.3 -58.3,-76.8 -139.2,-133.4 -231.4,-161.7 -134,-41.1 -317.1,-98.51 -323.3,-106.81 l -137.801,243.01 -23.305,41.09 423.006,189.31 191.8,397.3 c 38.6,83.5 97.6,154.7 170.5,207.9 3.2,-20.9 6.8,-48.1 10.1,-80.1 16.5,-155.7 29.6,-425.3 -11.5,-634.1"
         style="fill:#182e4b;fill-opacity:1;fill-rule:nonzero;stroke:none"
         id="path134" /><path
         d="m 1634.23,2105.22 c -166.4,-167.5 -301,-577.6 -301,-577.6 l -471.101,-177.9 -23.305,41.09 423.006,189.31 191.8,397.3 c 38.6,83.5 97.6,154.7 170.5,207.9 3.2,-20.9 6.8,-48.1 10.1,-80.1"
         style="fill:#1b395c;fill-opacity:1;fill-rule:nonzero;stroke:none"
         id="path136" /><path
         d="m 3472.23,1390.81 -7.5,-13.19 -19.3,-31.41 -439.61,186.01 c 0,0 -121.19,259.2 -205.69,422.6 -42.1,81.39 -87,134.9 -121.41,168 2.81,24.5 5.61,45.6 8.21,62.5 72.9,-53.2 131.9,-124.4 170.49,-207.9 l 191.81,-397.3 423,-189.31"
         style="fill:#1b395c;fill-opacity:1;fill-rule:nonzero;stroke:none"
         id="path138" /><path
         d="m 1914.43,2306.21 c 6.7,-58.09 -280.2,-200.99 -280.2,-200.99 0,0 -9.3,37.7 -15.7,76.6 44.2,32.9 93.5,59.1 146.7,77.2 l 148.4,50.6 c 0.4,-1.1 0.7,-2.2 0.8,-3.41"
         style="fill:#2e57af;fill-opacity:1;fill-rule:nonzero;stroke:none"
         id="path140" /><path
         d="m 998.227,1108.12 -364.2,-127.901 c -50.3,-25.098 -109.898,-20.797 -155.8,10.703 l 473.097,190.288 41.305,-63.39 5.598,-9.7"
         style="fill:#f57454;fill-opacity:1;fill-rule:nonzero;stroke:none"
         id="path142" /><path
         d="m 3311.54,1108.12 364.2,-127.901 c 50.3,-25.098 109.9,-20.797 155.8,10.703 l -473.1,190.288 -41.31,-63.39 -5.59,-9.7"
         style="fill:#f57454;fill-opacity:1;fill-rule:nonzero;stroke:none"
         id="path144" /><path
         d="m 2051.18,2888.71 h -90.73"
         style="fill:none;stroke:#1b1f42;stroke-width:10;stroke-linecap:round;stroke-linejoin:miter;stroke-miterlimit:10;stroke-dasharray:none;stroke-opacity:1"
         id="path146" /><path
         d="m 2376.9,2888.71 h -90.73"
         style="fill:none;stroke:#1b1f42;stroke-width:10;stroke-linecap:round;stroke-linejoin:miter;stroke-miterlimit:10;stroke-dasharray:none;stroke-opacity:1"
         id="path148" /><path
         d="m 2342.42,3314.52 c -9.19,-34.7 -40.8,-60.2 -78.3,-60.2 h -395.59 c 3,33.8 31.4,60.2 65.9,60.2 h 407.99"
         style="fill:#1b395c;fill-opacity:1;fill-rule:nonzero;stroke:none"
         id="path150" /><path
         d="m 2857.37,3530.65 c -14.87,-16.42 -28.18,-29.72 -44.58,-44.58 -16.42,14.86 -29.72,28.16 -44.58,44.58 14.86,16.41 28.16,29.71 44.58,44.57 16.4,-14.86 29.71,-28.16 44.58,-44.57 z"
         style="fill:none;stroke:#1b1f42;stroke-width:10;stroke-linecap:round;stroke-linejoin:miter;stroke-miterlimit:10;stroke-dasharray:none;stroke-opacity:1"
         id="path152" /><path
         d="m 1419.32,2948.34 c -14.86,-16.41 -28.16,-29.72 -44.58,-44.58 -16.41,14.86 -29.72,28.17 -44.58,44.58 14.86,16.41 28.17,29.72 44.58,44.58 16.42,-14.86 29.72,-28.17 44.58,-44.58 z"
         style="fill:none;stroke:#1b1f42;stroke-width:10;stroke-linecap:round;stroke-linejoin:miter;stroke-miterlimit:10;stroke-dasharray:none;stroke-opacity:1"
         id="path154" /><path
         d="m 2885.44,2966.38 c 0,-19.54 -15.84,-35.38 -35.38,-35.38 -19.54,0 -35.38,15.84 -35.38,35.38 0,19.54 15.84,35.38 35.38,35.38 19.54,0 35.38,-15.84 35.38,-35.38 z"
         style="fill:none;stroke:#1b1f42;stroke-width:10;stroke-linecap:round;stroke-linejoin:miter;stroke-miterlimit:10;stroke-dasharray:none;stroke-opacity:1"
         id="path156" /></g></g></svg>
